<svg width="512" height="512" viewBox="0 0 512 512" fill="none" xmlns="http://www.w3.org/2000/svg">
<path d="M22 165.588V124H217.941V165.588H144.9V362.578H95.0411V165.588H22Z" fill="white"/>
<path d="M289.264 365.49C275.673 365.49 263.364 361.995 252.336 355.006C241.385 347.938 232.687 337.571 226.241 323.902C219.873 310.156 216.689 293.303 216.689 273.344C216.689 252.841 219.99 235.794 226.591 222.204C233.192 208.535 241.968 198.323 252.918 191.566C263.946 184.732 276.023 181.315 289.148 181.315C299.166 181.315 307.515 183.023 314.194 186.44C320.95 189.78 326.387 193.973 330.503 199.022C334.696 203.992 337.881 208.885 340.055 213.7H341.569V124H391.079V362.578H342.152V333.92H340.055C337.725 338.891 334.425 343.822 330.153 348.715C325.959 353.53 320.484 357.53 313.728 360.714C307.049 363.898 298.894 365.49 289.264 365.49ZM304.991 325.999C312.99 325.999 319.746 323.824 325.26 319.475C330.852 315.049 335.124 308.874 338.075 300.953C341.104 293.031 342.618 283.751 342.618 273.111C342.618 262.471 341.142 253.23 338.191 245.386C335.24 237.542 330.969 231.484 325.377 227.213C319.785 222.941 312.99 220.806 304.991 220.806C296.836 220.806 289.963 223.019 284.371 227.446C278.78 231.873 274.547 238.008 271.674 245.852C268.8 253.696 267.363 262.782 267.363 273.111C267.363 283.518 268.8 292.721 271.674 300.72C274.625 308.641 278.857 314.854 284.371 319.359C289.963 323.786 296.836 325.999 304.991 325.999Z" fill="white"/>
<path d="M460.887 365.607C453.199 365.607 446.598 362.888 441.084 357.452C435.647 351.938 432.929 345.337 432.929 337.648C432.929 330.037 435.647 323.514 441.084 318.077C446.598 312.641 453.199 309.923 460.887 309.923C468.343 309.923 474.867 312.641 480.458 318.077C486.05 323.514 488.846 330.037 488.846 337.648C488.846 342.774 487.526 347.472 484.885 351.744C482.322 355.938 478.944 359.316 474.75 361.879C470.556 364.364 465.935 365.607 460.887 365.607Z" fill="white"/>
<path d="M22 187.982V146.394H217.941V187.982H144.9V384.971H95.0411V187.982H22Z" fill="black"/>
<path d="M289.264 387.884C275.673 387.884 263.364 384.389 252.336 377.399C241.385 370.332 232.687 359.964 226.241 346.296C219.873 332.549 216.689 315.697 216.689 295.738C216.689 275.235 219.99 258.188 226.591 244.597C233.192 230.929 241.968 220.716 252.918 213.96C263.946 207.125 276.023 203.708 289.148 203.708C299.166 203.708 307.515 205.417 314.194 208.834C320.95 212.173 326.387 216.367 330.503 221.415C334.696 226.385 337.881 231.278 340.055 236.093H341.569V146.394H391.079V384.971H342.152V356.314H340.055C337.725 361.284 334.425 366.216 330.153 371.109C325.959 375.924 320.484 379.923 313.728 383.107C307.049 386.292 298.894 387.884 289.264 387.884ZM304.991 348.392C312.99 348.392 319.746 346.218 325.26 341.869C330.852 337.442 335.124 331.268 338.075 323.346C341.104 315.425 342.618 306.144 342.618 295.505C342.618 284.865 341.142 275.623 338.191 267.779C335.24 259.935 330.969 253.878 325.377 249.606C319.785 245.335 312.99 243.199 304.991 243.199C296.836 243.199 289.963 245.413 284.371 249.839C278.78 254.266 274.547 260.401 271.674 268.245C268.8 276.089 267.363 285.176 267.363 295.505C267.363 305.911 268.8 315.114 271.674 323.113C274.625 331.035 278.857 337.248 284.371 341.752C289.963 346.179 296.836 348.392 304.991 348.392Z" fill="black"/>
<path d="M460.887 388C453.199 388 446.598 385.282 441.084 379.846C435.647 374.332 432.929 367.73 432.929 360.042C432.929 352.431 435.647 345.907 441.084 340.471C446.598 335.035 453.199 332.316 460.887 332.316C468.343 332.316 474.867 335.035 480.458 340.471C486.05 345.907 488.846 352.431 488.846 360.042C488.846 365.167 487.526 369.866 484.885 374.137C482.322 378.331 478.944 381.709 474.75 384.272C470.556 386.758 465.935 388 460.887 388Z" fill="black"/>
</svg>
